<?xml version="1.0" standalone="no"?>
<!DOCTYPE svg PUBLIC "-//W3C//DTD SVG 20010904//EN"
 "http://www.w3.org/TR/2001/REC-SVG-20010904/DTD/svg10.dtd">
<svg version="1.0" xmlns="http://www.w3.org/2000/svg"
 width="800.000000pt" height="800.000000pt" viewBox="0 0 800.000000 800.000000"
 preserveAspectRatio="xMidYMid meet">
<metadata>
Created by potrace 1.11, written by Peter Selinger 2001-2013
</metadata>
<g transform="translate(0.000000,800.000000) scale(0.100000,-0.100000)"
fill="#000000" stroke="none">
<path d="M2000 7000 l0 -200 -200 0 -200 0 0 -200 0 -200 -200 0 -200 0 0
-600 0 -600 -200 0 -200 0 0 -200 0 -200 200 0 200 0 0 -1000 0 -1000 200 0
200 0 0 -200 0 -200 400 0 400 0 0 -200 0 -200 200 0 200 0 0 -200 0 -200 400
0 400 0 0 200 0 200 400 0 400 0 0 -200 0 -200 400 0 400 0 0 200 0 200 200 0
200 0 0 200 0 200 400 0 400 0 0 200 0 200 200 0 200 0 0 1000 0 1000 200 0
200 0 0 200 0 200 -200 0 -200 0 0 600 0 600 -200 0 -200 0 0 200 0 200 -200
0 -200 0 0 200 0 200 -2000 0 -2000 0 0 -200z m400 -800 l0 -200 800 0 800 0
0 200 0 200 1000 0 1000 0 0 -200 0 -200 200 0 200 0 0 -200 0 -200 -1000 0
-1000 0 0 -200 0 -200 -400 0 -400 0 0 200 0 200 -1000 0 -1000 0 0 200 0 200
200 0 200 0 0 200 0 200 200 0 200 0 0 -200z m-400 -1400 l0 -400 400 0 400 0
0 400 0 400 200 0 200 0 0 -600 0 -600 -800 0 -800 0 0 600 0 600 200 0 200 0
0 -400z m3200 0 l0 -400 400 0 400 0 0 400 0 400 200 0 200 0 0 -600 0 -600
-800 0 -800 0 0 600 0 600 200 0 200 0 0 -400z m-800 -600 l0 -600 -400 0
-400 0 0 600 0 600 400 0 400 0 0 -600z m-1200 -800 l0 -200 800 0 800 0 0
200 0 200 800 0 800 0 0 -200 0 -200 -200 0 -200 0 0 -200 0 -200 -400 0 -400
0 0 200 0 200 -200 0 -200 0 0 -200 0 -200 -800 0 -800 0 0 200 0 200 -200 0
-200 0 0 -200 0 -200 -400 0 -400 0 0 200 0 200 -200 0 -200 0 0 200 0 200
800 0 800 0 0 -200z"/>
</g>
</svg>
